<?xml version="1.0" encoding="UTF-8"?>
<svg id="Layer_1" data-name="Layer 1" xmlns="http://www.w3.org/2000/svg" viewBox="0 0 1900 480">
  <defs>
    <style>
      .cls-1 {
        fill: #2d3c5b;
      }

      .cls-1, .cls-2, .cls-3, .cls-4, .cls-5, .cls-6, .cls-7 {
        fill-rule: evenodd;
      }

      .cls-2 {
        fill: #2688b5;
      }

      .cls-3 {
        fill: #47b6cf;
      }

      .cls-4 {
        fill: #1368aa;
      }

      .cls-8 {
        fill: #1b78aa;
      }

      .cls-5 {
        fill: #204779;
      }

      .cls-6 {
        fill: #999;
      }

      .cls-7 {
        fill: #1b3b6d;
      }
    </style>
  </defs>
  <g id="Layer_1-2" data-name="Layer_1">
    <path d="M506.7542,260.5472h44.7422l-16.8116-54.4744c-.4999-1.655-1.2311-4.308-2.1161-8.0013-.9237-3.6933-2.0771-8.4253-3.5009-14.1958-.961,4.0395-1.9234,7.9254-2.8861,11.6187-.9221,3.6545-1.8847,7.1942-2.8455,10.5801l-16.5821,54.4744v-.0016ZM443.7008,322.177l56.9755-165.0395h56.3592l57.0144,165.0396h-44.7422l-8.3475-29.545h-63.8995l-8.5789,29.545h-44.7811ZM1014.081,260.5472h44.7422l-16.8116-54.4744c-.4999-1.655-1.2311-4.308-2.1161-8.0013-.9237-3.6933-2.0771-8.4253-3.5009-14.1958-.961,4.0395-1.9234,7.9254-2.8861,11.6187-.9221,3.6545-1.8847,7.1942-2.8455,10.5801l-16.5821,54.4744v-.0016ZM951.0276,322.177l56.9755-165.0395h56.3592l57.0144,165.0396h-44.7422l-8.3475-29.545h-63.8995l-8.5789,29.545h-44.7811ZM1148.9356,268.856c6.6942,7.5792,13.272,13.2331,19.7737,17.0042,6.5017,3.7322,12.9646,5.6168,19.4276,5.6168,6.0019,0,10.9634-1.6161,14.8105-4.8468,3.8858-3.2306,5.8094-7.3089,5.8094-12.2722,0-5.4632-1.655-9.6952-5.0005-12.6573-3.3454-2.9621-10.8874-6.039-22.6598-9.1936-16.158-4.3469-27.6214-10.0414-34.3157-17.0042-6.6942-7.0016-10.0414-16.582-10.0414-28.7377,0-15.8119,5.2706-28.66,15.849-38.6255,10.5413-9.9637,24.2743-14.927,41.0876-14.927,9.1177,0,17.7353,1.2311,25.8904,3.6545,8.1567,2.4622,15.8879,6.1556,23.1986,11.1172l-14.118,32.3145c-5.1169-4.3469-10.3488-7.618-15.7342-9.8488-5.3483-2.192-10.656-3.3083-15.9267-3.3083-5.3854,0-9.7729,1.3088-13.1572,3.8858-3.3859,2.577-5.0782,5.9242-5.0782,9.9637,0,4.1155,1.4625,7.4238,4.4246,9.9249,2.9621,2.4622,8.6938,4.8468,17.1578,7.0793l2.0384.5775c18.3501,4.9633,30.4299,10.3876,36.2004,16.3489,3.9247,4.0395,6.8868,8.9251,8.9251,14.5808,2.0384,5.6946,3.0398,11.9649,3.0398,18.8888,0,17.504-5.7317,31.5849-17.2355,42.2022-11.5022,10.6561-26.853,15.9656-46.0104,15.9656-11.5022,0-21.9675-1.9624-31.4313-5.8482-9.4249-3.9247-18.5038-10.0414-27.1992-18.389l20.2752-33.4696v.0035ZM724.3363,256.3524l8.5789,11.3874c2.3846-3.771,4.232-7.8866,5.5004-12.3499,1.2699-4.4634,1.9234-9.2325,1.9234-14.2734,0-14.5031-4.0784-26.4292-12.2335-35.7781-8.1567-9.3473-18.4666-14.0421-30.9314-14.0421-12.2335,0-22.5044,4.6559-30.7761,13.9644-8.2716,9.349-12.387,20.9289-12.387,34.7396,0,14.1197,4.0784,25.8144,12.2722,35.0857,8.1938,9.2325,18.5815,13.8495,31.1239,13.8495,1.731,0,3.5009-.1925,5.3483-.6164,1.8458-.4222,3.8081-1.0386,5.9242-1.8847l-23.3523-30.0837h39.0088l.0002.0017ZM788.8522,341.5269h-38.3552l-17.5818-23.0837c-4.7318,2.5399-10.0414,4.4634-15.8896,5.7317-5.8482,1.27-12.2335,1.9235-19.1574,1.9235-9.3862,0-18.3889-1.2311-26.968-3.7322-8.6178-2.4622-16.6192-6.1556-24.043-11.0411-11.8113-7.8866-21.0438-18.1576-27.7769-30.8149-6.7331-12.6573-10.0803-26.2366-10.0803-40.7398,0-11.7335,2.2309-22.8135,6.6554-33.2382,4.4246-10.4636,10.8487-19.7737,19.2738-27.9676,8.2716-8.1179,17.7353-14.3106,28.3915-18.6575,10.656-4.3097,21.9658-6.4629,33.9306-6.4629,11.85,0,23.1209,2.1548,33.7769,6.4629,10.656,4.3469,20.1588,10.5413,28.5063,18.6575,8.3475,8.1939,14.7345,17.504,19.1591,27.9676,4.4246,10.4265,6.6554,21.5435,6.6554,33.2382,0,12.3499-2.2698,23.7373-6.7702,34.2769-4.5006,10.5024-11.1172,19.7366-19.8514,27.6214l30.1225,39.8565.002.0017ZM803.3469,157.1357h44.7793v80.289c0,11.7724.3074,20.2753.885,25.3906.6165,5.1558,1.6162,9.4638,3.0769,12.9258,1.6921,4.1932,4.7318,7.4255,9.0027,9.6564,4.2709,2.192,9.5026,3.3083,15.6582,3.3083s11.3485-1.1163,15.6194-3.3083c4.232-2.2309,7.2717-5.4632,9.0417-9.6564,1.4608-3.462,2.4622-7.7717,3.0769-12.9258.5775-5.1169.885-13.6182.885-25.3906v-80.2873h44.781v87.2517c0,18.1204-1.0774,31.4701-3.2695,40.0862-2.1921,8.5789-5.8482,15.9267-11.0411,22.0434-5.6168,6.6554-13.3497,11.6947-23.1986,15.0418-9.8471,3.3471-21.775,5.0004-35.8153,5.0004-14.1569,0-26.083-1.655-35.893-5.0004-9.81-3.3471-17.5818-8.3864-23.2746-15.0418-5.1169-6.1167-8.7715-13.4645-11.0024-22.0434-2.1921-8.6177-3.3083-21.9657-3.3083-40.0862v-87.2517l-.0031-.0016Z"/>
    <polygon class="cls-8" points="1699.3056 275.226 1699.3056 157.1374 1771.6454 157.1374 1771.6454 183.0667 1730.6863 183.0667 1730.6863 203.5464 1769.3049 203.5464 1769.3049 228.8154 1730.6863 228.8154 1730.6863 248.8002 1771.6454 248.8002 1771.6454 275.226 1699.3056 275.226"/>
    <path class="cls-8" d="M1576.4615,157.1374h32.0394v57.4467c0,8.4235.2213,14.5065.6333,18.1677.4407,3.6882,1.1551,6.772,2.202,9.2494,1.2108,3.0009,3.3861,5.3128,6.4411,6.9088,3.0549,1.5689,6.7989,2.3677,11.2032,2.3677s8.1196-.7988,11.1762-2.3677c3.0279-1.5959,5.2032-3.9095,6.4697-6.9088,1.0453-2.4774,1.7613-5.5611,2.202-9.2494.412-3.6613.6316-9.7442.6316-18.1677v-57.4483h32.041v62.4303c0,12.9646-.7702,22.5163-2.3389,28.682-1.5687,6.1387-4.1846,11.3958-7.8999,15.773-4.0194,4.7623-9.5517,8.3678-16.5987,10.7625-7.0456,2.3947-15.5805,3.5785-25.627,3.5785-10.1293,0-18.6625-1.1838-25.6827-3.5785-7.0186-2.3947-12.5796-6.0001-16.6528-10.7625-3.6612-4.3756-6.2755-9.6344-7.8712-15.773-1.5687-6.1656-2.3676-15.7173-2.3676-28.682v-62.4302l-.0007.0016Z"/>
    <polygon class="cls-8" points="1495.8431 275.226 1495.8431 157.1374 1528.048 157.1374 1528.048 247.6451 1568.016 247.6451 1568.016 275.226 1495.8431 275.226"/>
    <path class="cls-8" d="M1390.3258,288.476h15.7731c10.656,0,18.1964-1.3476,22.621-4.0007,4.4246-2.6919,6.6183-7.1553,6.6183-13.3885,0-6.9239-2.0384-11.7335-6.0796-14.5031-4.0395-2.7325-11.541-4.1172-22.4673-4.1172h-16.4655v36.0095h-.0002ZM1348.5457,322.177v-165.0395h45.2808c18.6203,0,31.6238.6147,39.0476,1.807,7.3867,1.1923,13.7347,3.2694,19.0814,6.1944,6.0779,3.3859,10.7337,7.9254,13.9255,13.5794,3.1935,5.6946,4.7708,12.2334,4.7708,19.6978,0,9.3862-2.3844,16.8505-7.1553,22.3897-4.7708,5.5003-12.387,9.6952-22.8506,12.5796,11.6947.885,20.8901,5.0004,27.4678,12.3111,6.6182,7.3478,9.9264,17.119,9.9264,29.3913,0,8.7714-1.8474,16.5026-5.5779,23.1968-3.6932,6.6943-9.0417,11.8872-15.9267,15.5434-5.6168,3.0009-12.5796,5.1541-20.8124,6.4241-8.2716,1.27-21.775,1.9235-40.549,1.9235h-46.6267l-.0018.0015ZM1390.3258,223.1529h9.0027c11.1172,0,18.7352-1.2311,22.8895-3.6545,4.1155-2.4622,6.1927-6.6943,6.1927-12.6944,0-6.2333-1.9234-10.5801-5.8094-13.1184-3.8471-2.5011-11.3873-3.771-22.5821-3.771h-9.6952v33.2382h.0018Z"/>
    <rect class="cls-8" x="1495.8431" y="297.5835" width="275.8023" height="24.5935"/>
    <path class="cls-6" d="M1295.6089,128.8067h.0002c2.7136,0,4.9134,3.1121,4.9134,6.951v208.4847c0,3.8389-2.1998,6.951-4.9134,6.951h-.0002c-2.7136,0-4.9134-3.1121-4.9134-6.951v-208.4847c0-3.8389,2.1998-6.951,4.9134-6.951Z"/>
    <path d="M194.1301,128.8304c15.5822-9.5263,30.3724-20.5117,44.1848-32.8397,9.1751-8.481,23.0736-8.8288,32.6557-.2415,13.8901,12.4276,28.7715,23.4924,44.4567,33.0829,15.6447,9.5652,31.9312,17.6155,48.6753,24.0396,11.6086,4.0885,18.9242,16.6867,16.7036,29.8135-3.1529,18.573-4.7302,37.7574-4.7302,57.3167h-.098c0,19.1759,1.6094,38.3586,4.8282,57.3167l-.0033.0016c2.1329,12.5104-4.5123,25.1863-16.1886,29.6159-16.614,6.3362-32.6557,14.1789-47.9509,23.4232-.4036.2804-.814.5522-1.2362.8106-15.5822,9.5263-30.3724,20.5117-44.1848,32.8397-9.1751,8.481-23.0736,8.8288-32.6557.2415-13.8901-12.4276-28.7715-23.4924-44.4567-33.0829-15.6447-9.5652-31.9312-17.6155-48.6753-24.0396-11.6086-4.0885-18.9242-16.6867-16.7036-29.8135,3.1529-18.573,4.7302-37.7574,4.7302-57.3167h.098c0-19.1759-1.6094-38.3586-4.8282-57.3167l.0033-.0016c-2.1329-12.5104,4.5123-25.1863,16.1886-29.6159,16.614-6.3362,32.6557-14.1789,47.9509-23.4232.4036-.2804.814-.5522,1.2362-.8106ZM259.8349,239.9984l102.0233,58.9041c-7.0033-38.9564-7.0033-78.8501,0-117.8065l-102.025,58.9041.0016-.0016ZM259.8349,250.1107v117.8065c30.2356-25.5442,64.7844-45.4903,102.025-58.9041l-102.0233-58.9041-.0016.0016ZM249.7226,250.1107l-102.025,58.9041c37.2406,13.4139,71.7877,33.3599,102.0233,58.9041v-117.8065l.0016-.0016ZM249.7226,239.9984l-102.0233-58.9041c7.0033,38.9564,7.0033,78.8501,0,117.8065l102.025-58.9041-.0016.0016ZM249.7226,229.8861v-117.8065c-30.2356,25.5442-64.7844,45.4903-102.025,58.9041l102.0233,58.9041.0016-.0016ZM259.8349,229.8861l102.025-58.9041c-37.2406-13.4139-71.7877-33.3599-102.025-58.9041v117.8081Z"/>
    <path class="cls-2" d="M249.7226,229.886v-117.8065c-30.2356,25.5442-64.7844,45.4903-102.025,58.9041l102.0233,58.9041.0016-.0016Z"/>
    <path class="cls-4" d="M249.7226,239.9983l-102.0233-58.9041c7.0033,38.9564,7.0033,78.8501,0,117.8065l102.025-58.9041-.0016.0016Z"/>
    <path class="cls-5" d="M249.7226,250.1107l-102.025,58.9041c37.2406,13.4139,71.7877,33.3599,102.0233,58.9041v-117.8065l.0016-.0016Z"/>
    <path class="cls-7" d="M259.8349,250.1107v117.8065c30.2356-25.5442,64.7844-45.4903,102.025-58.9041l-102.0233-58.9041-.0016.0016Z"/>
    <path class="cls-1" d="M259.8349,239.9983l102.0233,58.9041c-7.0033-38.9564-7.0033-78.8501,0-117.8065l-102.025,58.9041.0016-.0016Z"/>
    <path class="cls-3" d="M259.8349,229.886l102.025-58.9041c-37.2406-13.4139-71.7877-33.3599-102.025-58.9041v117.8081Z"/>
  </g>
</svg>